<svg xmlns="http://www.w3.org/2000/svg" version="1.0" viewBox="0 0 537.000000 212.000000" preserveAspectRatio="xMidYMid meet"><metadata>
Created by potrace 1.15, written by Peter Selinger 2001-2017
</metadata><g transform="translate(0.000000,212.000000) scale(0.100000,-0.100000)" fill="currentColor" stroke="none"><path d="M1175 2022 c-76 -26 -138 -66 -185 -119 -58 -65 -107 -172 -116 -252 l-7 -64 55 5 c169 14 329 188 345 376 6 71 6 72 -18 72 -13 -1 -47 -8 -74 -18z" fill="#737373"></path><path d="M2030 1635 l0 -165 -100 0 -100 0 0 -110 0 -110 100 0 100 0 0 -440 c0 -450 4 -509 41 -581 26 -53 91 -106 151 -124 61 -19 225 -31 292 -21 l46 7 0 108 0 107 -64 -4 c-81 -5 -146 21 -173 70 -16 30 -18 69 -21 455 l-3 422 133 3 133 3 0 105 0 105 -132 3 -133 3 0 164 0 165 -135 0 -135 0 0 -165z" fill="#737373">
</path ><path d="M1135 1550 c-38 -10 -100 -30 -138 -44 -37 -14 -84 -26 -105 -26 -20 0 -89 18 -152 40 -71 24 -133 40 -162 40 -225 0 -416 -162 -478 -406 -74 -289 56 -720 294 -972 109 -115 191 -133 341 -71 63 25 98 33 165 37 78 4 93 1 184 -32 117 -43 187 -47 252 -16 87 43 211 199 289 365 62 130 62 126 13 154 -149 85 -224 226 -216 405 5 120 42 198 135 287 62 59 64 63 51 87 -34 64 -176 144 -288 161 -86 14 -102 13 -185 -9z" fill="#737373"></path><path d="M2720 1460 c0 -5 102 -296 226 -647 125 -351 233 -657 241 -681 l15 -43 145 3 146 3 238 675 c131 371 239 681 239 688 0 10 -31 12 -137 10 l-138 -3 -58 -185 c-32 -102 -108 -347 -169 -545 -60 -198 -113 -363 -117 -368 -4 -4 -67 188 -141 425 -73 238 -151 488 -172 556 l-39 122 -139 0 c-82 0 -140 -4 -140 -10z" fill="#737373"></path><path d="M4520 1185 l0 -285 -270 0 -270 0 0 -120 0 -120 268 -2 267 -3 3 -282 2 -283 125 0 125 0 0 285 0 285 268 2 267 3 0 115 0 115 -267 3 -268 2 -2 283 -3 282 -122 3 -123 3 0 -286z" fill="#737373"></path> </g></svg>